<?xml version="1.0" encoding="utf-8"?>
<!-- Generator: Adobe Illustrator 27.8.1, SVG Export Plug-In . SVG Version: 6.00 Build 0)  -->
<svg version="1.1" id="Layer_1" xmlns="http://www.w3.org/2000/svg" xmlns:xlink="http://www.w3.org/1999/xlink" x="0px" y="0px"
	 viewBox="0 0 687.8 190.9" style="enable-background:new 0 0 687.8 190.9;" xml:space="preserve">
<style type="text/css">
	.st0{display:none;}
	.st1{display:inline;}
	.st2{fill:#FFFFFF;}
	.st3{stroke:#FFFFFF;stroke-width:3;stroke-miterlimit:10;}
	.st4{display:inline;fill:#FFFFFF;}
	.st5{stroke:#000000;stroke-miterlimit:10;}
</style>
<g class="st0">
	<g class="st1">
		<g>
			<path class="st2" d="M235.3,170.1l-57.9-57.9l-0.3-0.3l-5.7-5.7l-1.1-1.1l-3.5-3.5l-2.2-2.2c-10.4-10.4-24.1-15.8-37.8-16.1
				c-0.4,0-0.9,0-1.3,0c-0.4,0-0.9,0-1.3,0c-13.6,0.3-27.1,5.6-37.5,15.9S71,123.1,70.8,136.7c0,0.4,0,0.9,0,1.3s0,0.9,0,1.3
				c0.2,13.7,5.6,27.4,16.1,37.8l7.7,7.7c0-0.2,0.1-0.3,0.1-0.5c0.8-2.9,1.8-5.7,3.1-8.4c0.2-0.5,0.4-0.9,0.7-1.4l-4.5-4.5
				c-17.6-17.5-17.6-46.1,0-63.6c17.5-17.5,46.1-17.5,63.6,0l6.8,6.8l5.7,5.7l0.3,0.3l57.9,57.9c0.7,0.7,1.4,1.5,2.1,2.3l7.1-7.1
				C236.8,171.6,236.1,170.8,235.3,170.1z M137.4,89.6c2.5,0.6,5,1.4,7.4,2.4C142.4,91,139.9,90.2,137.4,89.6z M107,91.9
				c1.2-0.5,2.5-0.9,3.7-1.3C109.5,91,108.2,91.4,107,91.9z M115.4,89.4c1.1-0.2,2.1-0.4,3.2-0.6c1.1-0.2,2.1-0.3,3.2-0.4
				c-1.1,0.1-2.1,0.2-3.2,0.4C117.5,89,116.4,89.2,115.4,89.4z M81.8,162c-0.5-1-1-2-1.5-3C80.8,160,81.3,161,81.8,162z M77.8,124.4
				c0.4-1.3,0.8-2.6,1.3-3.9C78.6,121.8,78.1,123.1,77.8,124.4z M78.7,155c-0.4-1-0.7-2.1-1-3.1C78,152.9,78.3,154,78.7,155z
				 M81.3,115.5c0.5-1,1-1.9,1.6-2.9C82.3,113.5,81.8,114.5,81.3,115.5z M105.8,174.8l-1.2-1.2c-0.9,1.6-1.7,3.1-2.4,4.7
				c-0.2,0.5-0.4,1-0.6,1.4c-1.2,2.8-2.1,5.7-2.8,8.7c0,0.2-0.1,0.4-0.1,0.5c-0.4,2-0.8,4-1,6l9.9,9.9c-0.2-2.4-0.2-4.7-0.1-7.1
				c0-0.2,0-0.4,0.1-0.6c0.3-3.2,0.9-6.5,1.8-9.6c0.2-0.5,0.3-1,0.5-1.6c0.6-1.7,1.3-3.4,2.1-5L105.8,174.8z M248.1,190l-0.2,0.2
				l-3.7,3.7l-2.7,2.7l-1.4,1.4c3.7,14.8-0.2,31.2-11.8,42.8c-12.1,12.1-29.3,15.8-44.6,11.3c-1.9-0.6-3.9-1.3-5.7-2.1
				c-0.1,0-0.3-0.1-0.4-0.2c-1.8-0.9-3.6-1.8-5.4-3c0,0,0,0,0,0c-0.9-0.6-1.9-1.3-2.8-2c-0.7-0.5-1.3-1-2-1.6
				c-0.9-0.8-1.8-1.6-2.7-2.5l-1.4-1.4L113.9,190c-0.2,0.6-0.3,1.1-0.4,1.7c-0.7,3-1.1,6.1-1.1,9.2c0,0.4,0,0.8,0,1.2
				c0,0.2,0,0.4,0,0.7l45.1,45.1c0.8,0.8,1.7,1.6,2.6,2.4c0,0,0,0,0,0c1.7,1.5,3.4,2.8,5.2,4c0,0,0.1,0,0.1,0.1
				c1.9,1.3,3.8,2.4,5.8,3.5c20.7,10.7,46.8,7.3,64.1-10C251,232.3,255.2,209.5,248.1,190z M245.8,174.7c-0.5-0.7-1-1.4-1.5-2.1
				l-3.6,3.6l-0.3,0.3l-3.2,3.2l-2.5,2.5l-1.1,1.1l-3.6,3.6c0.5,0.7,0.9,1.5,1.4,2.2c1.3,2.3,2.4,4.8,3.2,7.3
				c0.1,0.2,0.1,0.4,0.2,0.7l3.9-3.9c-0.1-0.2-0.2-0.4-0.2-0.6l7.4-7.4l0.2-0.2l3.8-3.8C248.6,179,247.2,176.8,245.8,174.7z"/>
		</g>
		<g>
			<path class="st2" d="M164.6,240.8l-1.4-1.4c-0.6,0.2-1.1,0.3-1.6,0.4l2.3,2.3c0.6,0.6,1.2,1.2,1.8,1.7c0.6-0.2,1.1-0.4,1.6-0.5
				C166.4,242.5,165.5,241.7,164.6,240.8z M229.9,187l-45.8,45.8c-3.5,3.5-7.4,6.2-11.5,8.4c0.7,0.5,1.4,1,2.1,1.5
				c4.2-2.1,8.2-5,11.7-8.5l44.8-44.8C230.8,188.4,230.4,187.7,229.9,187z M164.6,240.8l-1.4-1.4c-0.6,0.2-1.1,0.3-1.6,0.4l2.3,2.3
				c0.6,0.6,1.2,1.2,1.8,1.7c0.6-0.2,1.1-0.4,1.6-0.5C166.4,242.5,165.5,241.7,164.6,240.8z M229.9,187l-45.8,45.8
				c-3.5,3.5-7.4,6.2-11.5,8.4c0.7,0.5,1.4,1,2.1,1.5c4.2-2.1,8.2-5,11.7-8.5l44.8-44.8C230.8,188.4,230.4,187.7,229.9,187z
				 M177.4,112.2l-0.3-0.3l-5.7-5.7l-1.1-1.1l-3.5-3.5l-0.3,0.3l-5.7,5.7l-1,1.1l4.6,4.6l5.7,5.7l0.3,0.3l3.6,3.6l1-1l5.7-5.7
				l0.3-0.3L177.4,112.2z M263.6,91.2c-10.8-10.8-25.1-16.1-39.2-15.9c-14.5-0.3-29.2,5-40.2,16.1l-10.2,10.2l1.1,1.1l5.7,5.7
				l0.3,0.3l10.2-10.2c17.5-17.5,46.1-17.5,63.6,0c17.5,17.5,17.5,46.1,0,63.6l-10.6,10.6l-3.6,3.6l-0.3,0.3l-3.2,3.2l-2.5,2.5
				l-1.1,1.1l-3.6,3.6l-45.8,45.8c-3.5,3.5-7.4,6.2-11.5,8.4c0.7,0.5,1.4,1,2.1,1.5c0.9,0.6,1.8,1.1,2.7,1.6v0
				c1.8,1,3.6,1.8,5.5,2.4c0.2,0.1,0.4,0.1,0.6,0.2c3.1-2,6-4.4,8.7-7.1l42.6-42.6l3.9-3.9c-0.1-0.2-0.2-0.4-0.2-0.6l7.4-7.4
				l0.2-0.2l3.8-3.8c0.1,0.2,0.2,0.4,0.3,0.6l13.6-13.6C284.9,147,284.9,112.4,263.6,91.2z M154.1,251.4l-5.7-5.7
				c-10.2-0.9-20.1-5.2-27.9-13c-7.8-7.8-12.1-17.7-13-27.9c-0.2-2.4-0.2-4.7-0.1-7.1c0-0.2,0-0.4,0.1-0.6c0.3-3.2,0.9-6.5,1.8-9.6
				c0.2-0.5,0.3-1,0.5-1.6c0.6-1.7,1.3-3.4,2.1-5c2.1-4.3,5-8.3,8.5-11.9l46.3-46.3l-0.3-0.3l-5.7-5.7l-1.1-1.1L113.4,162
				c-3.5,3.5-6.5,7.4-8.9,11.6c-0.9,1.6-1.7,3.1-2.4,4.7c-0.2,0.5-0.4,1-0.6,1.4c-1.2,2.8-2.1,5.7-2.8,8.7c0,0.2-0.1,0.4-0.1,0.5
				c-0.4,2-0.8,4-1,6c-1.7,16,3.5,32.6,15.8,44.8c12.3,12.3,29.1,17.6,45.2,15.7c0,0,0,0-0.1,0C157,254.2,155.5,252.8,154.1,251.4z
				 M131.5,246.3c1.6,0.7,3.2,1.4,4.8,1.9C134.7,247.7,133.1,247.1,131.5,246.3z M177.9,250c-0.1,0-0.3-0.1-0.4-0.2
				c-1.8-0.9-3.6-1.8-5.4-3c-0.6,0.2-1.1,0.5-1.7,0.7c0,0,0,0-0.1,0c-0.4,0.2-0.9,0.3-1.3,0.5c0.4-0.2,0.9-0.3,1.3-0.5
				c0,0,0,0,0.1,0c0.6-0.2,1.1-0.4,1.7-0.7c-0.9-0.6-1.9-1.3-2.8-2c-0.7-0.5-1.3-1-2-1.6c-0.9-0.8-1.8-1.6-2.7-2.5l-1.4-1.4
				c-0.6,0.2-1.1,0.3-1.6,0.4c-1.4,0.3-2.8,0.6-4.2,0.8c-2.1,0.3-4.1,0.4-6.2,0.3c-0.2,0-0.4,0-0.7,0l7.1,7c0.8,0.8,1.7,1.6,2.6,2.4
				c0.2,0,0.4,0,0.6-0.1c0.3-0.1,0.6-0.1,1-0.2c-0.3,0.1-0.6,0.1-1,0.2c-0.2,0-0.4,0.1-0.6,0.1c1.7,1.5,3.4,2.8,5.2,4
				c0,0,0.1,0,0.1,0.1c1.9,1.3,3.8,2.4,5.8,3.5c0.1,0,0.3-0.1,0.4-0.1c3.5-1.2,6.9-2.7,10.1-4.5c0.6-0.4,1.3-0.7,1.9-1.1
				C181.7,251.5,179.8,250.8,177.9,250z M167.7,248.5c-0.9,0.3-1.8,0.6-2.7,0.8C165.9,249,166.8,248.8,167.7,248.5z M164.6,240.8
				l-1.4-1.4c-0.6,0.2-1.1,0.3-1.6,0.4l2.3,2.3c0.6,0.6,1.2,1.2,1.8,1.7c0.6-0.2,1.1-0.4,1.6-0.5
				C166.4,242.5,165.5,241.7,164.6,240.8z M229.9,187l-45.8,45.8c-3.5,3.5-7.4,6.2-11.5,8.4c0.7,0.5,1.4,1,2.1,1.5
				c4.2-2.1,8.2-5,11.7-8.5l44.8-44.8C230.8,188.4,230.4,187.7,229.9,187z"/>
		</g>
	</g>
</g>
<g>
	<g>
		<path class="st3" d="M193.4,17.2C183,6.9,169.5,1.5,155.9,1.2c-14.5-0.3-29.2,5-40.2,16.1l-10.2,10.2l1.1,1.1l5.7,5.7l0.3,0.3
			l10.2-10.2c17.5-17.5,46.1-17.5,63.6,0c17.5,17.5,17.5,46.1,0,63.6l-10.6,10.6l-3.6,3.6l-0.3,0.3l-3.2,3.2l-2.5,2.5l-1.1,1.1
			l-3.6,3.6l-45.8,45.8c-3.5,3.5-7.4,6.2-11.5,8.4c0.7,0.5,1.4,1,2.1,1.5c0.9,0.6,1.8,1.1,2.7,1.6v0c1.8,1,3.6,1.8,5.5,2.4
			c2.9-2,5.7-4.2,8.3-6.8l43.3-43.3l11.2-11.2l0.2-0.2l3.8-3.8L193.4,95C214.9,73.6,214.9,38.7,193.4,17.2z M85.6,177.4l-5.7-5.7
			c-10.2-0.9-20.1-5.2-27.9-13c-7.8-7.8-12.1-17.7-13-27.9c-0.2-2.4-0.2-4.7-0.1-7.1c0-0.2,0-0.4,0.1-0.6c0.3-3.2,0.9-6.5,1.8-9.6
			c0.2-0.5,0.3-1,0.5-1.6c0.6-1.7,1.3-3.4,2.1-5c2.1-4.3,5-8.3,8.5-11.9l46.3-46.3l-0.3-0.3l-5.7-5.7l-1.1-1.1L44.9,88
			c-3.5,3.5-6.5,7.4-8.9,11.6c-0.9,1.6-1.7,3.1-2.4,4.7c-0.2,0.5-0.4,1-0.6,1.4c-1.2,2.8-2.1,5.7-2.8,8.7c0,0.2-0.1,0.4-0.1,0.5
			c-0.4,2-0.8,4-1,6c-1.7,16,3.5,32.6,15.8,44.8c12.3,12.3,29.1,17.6,45.2,15.7c0,0,0,0-0.1,0C88.5,180.2,87,178.8,85.6,177.4z"/>
	</g>
	<g>
		<path class="st3" d="M166.9,96l-57.9-57.9l-0.3-0.3l-5.7-5.7l-1.1-1.1l-3.5-3.5l-2.2-2.2C85.7,14.9,72.1,9.5,58.3,9.3
			c-0.4,0-0.9,0-1.3,0c-0.4,0-0.9,0-1.3,0c-13.6,0.4-27,5.7-37.4,16.1C8,35.7,2.7,49.1,2.3,62.7c0,0.4,0,0.9,0,1.3s0,0.9,0,1.3
			C2.6,79,7.9,92.7,18.4,103.1l7.7,7.7c0-0.2,0.1-0.3,0.1-0.5c0.8-2.9,1.8-5.7,3.1-8.4c0.2-0.5,0.4-0.9,0.7-1.4L25.4,96
			c-17.5-17.5-17.5-46.1,0-63.6c17.5-17.5,46.1-17.5,63.6,0l6.8,6.8l5.7,5.7l0.3,0.3l57.9,57.9c0.7,0.7,1.4,1.5,2.1,2.3l7.1-7.1
			C168.3,97.5,167.6,96.8,166.9,96z M179.6,116l-0.2,0.2l-3.7,3.7l-2.7,2.7l-1.4,1.4c3.7,14.8-0.2,31.2-11.8,42.8
			c-12.1,12.1-29.3,15.8-44.6,11.3c-1.9-0.6-3.9-1.3-5.7-2.1c-0.1,0-0.3-0.1-0.4-0.2c-1.8-0.9-3.6-1.8-5.4-3c0,0,0,0,0,0
			c-0.9-0.6-1.9-1.3-2.8-2c-0.7-0.5-1.3-1-2-1.6c-0.9-0.8-1.8-1.6-2.7-2.5l-1.4-1.4L45.4,116c-0.1,0.6-0.3,1.1-0.4,1.7
			c-0.7,3-1.1,6.1-1.1,9.2c0,0.4,0,0.8,0,1.2c0,0.2,0,0.4,0,0.7l45.1,45.1c0.8,0.8,1.7,1.6,2.6,2.4c0,0,0,0,0,0
			c1.7,1.5,3.4,2.8,5.2,4c0,0,0.1,0,0.1,0.1c1.9,1.3,3.8,2.4,5.8,3.5c20.7,10.7,46.8,7.3,64.1-10C182.5,158.2,186.7,135.5,179.6,116
			z"/>
	</g>
	<g class="st0">
		<path class="st4" d="M103,32.1l-0.3,0.3l-5.7,5.7l-1,1l5.7,5.7l1.1-1l5.7-5.7l0.3-0.3L103,32.1z M195.1,17.1
			C184.3,6.3,170.1,1,155.9,1.2c-13.7,0.2-27.4,5.5-37.9,15.9l-11.4,11.4l5.7,5.7l11.5-11.5c8.8-8.8,20.4-13.6,32.9-13.6
			c12.4,0,24.1,4.8,32.8,13.6c18.1,18.1,18.1,47.6,0,65.7L118,160c-3.5,3.5-7.5,6.4-11.7,8.5c0.9,0.6,1.8,1.1,2.7,1.6v0
			c1.8,1,3.6,1.8,5.5,2.4c0.2,0.1,0.4,0.1,0.6,0.2c3.1-2,6-4.4,8.7-7.1l42.6-42.6l3.9-3.9c-0.1-0.2-0.2-0.4-0.2-0.6l7.4-7.4l0.2-0.2
			l3.8-3.8c0.1,0.2,0.2,0.4,0.3,0.6l13.5-13.6C216.4,73,216.4,38.4,195.1,17.1z M81.7,173.4c-10.7-0.8-21.3-5.3-29.4-13.5
			s-12.7-18.7-13.5-29.4c-0.2-2.3-0.2-4.7,0-7c0-0.2,0-0.4,0.1-0.6c0.3-3.2,0.9-6.4,1.9-9.6c0.2-0.5,0.3-1,0.5-1.6
			c0.6-1.7,1.3-3.4,2.1-5c2.2-4.5,5.2-8.8,8.9-12.5l45.9-45.8l-5.7-5.7L46.5,88.5c-3.7,3.7-6.8,7.8-9.2,12.2
			c-0.9,1.6-1.6,3.1-2.3,4.8c-0.2,0.5-0.4,1-0.6,1.5c-1.1,2.9-2,5.8-2.6,8.8c0,0.2-0.1,0.4-0.1,0.5c-0.4,2-0.7,4.1-0.9,6.1
			c-0.1,1.5-0.2,3.1-0.2,4.6c0,14.6,5.7,28.3,16,38.6c10.6,10.6,24.6,16,38.6,16c1.7,0,3.3-0.1,5-0.2c-1.6-1.3-3.1-2.6-4.5-4.1
			L81.7,173.4z M109,175.7c-1.8-0.9-3.6-1.8-5.4-3c0,0,0,0,0,0c-0.9-0.6-1.9-1.3-2.8-2c-0.6,0.2-1.1,0.4-1.7,0.6
			c-3.2,1-6.5,1.7-9.9,2c-0.2,0-0.4,0-0.6,0l0.4,0.4c0.8,0.8,1.7,1.6,2.6,2.4c0,0,0,0,0,0c1.7,1.5,3.4,2.8,5.2,4c0,0,0.1,0,0.1,0.1
			c0.2,0,0.3-0.1,0.5-0.1c3.4-0.8,6.9-1.9,10.1-3.4c0.6-0.3,1.2-0.6,1.9-0.9C109.3,175.9,109.2,175.8,109,175.7z"/>
	</g>
	<g class="st0">
		<path class="st4" d="M166.8,96.6L95.4,25.2C85.1,14.9,71.8,9.6,58.3,9.3c-0.4,0-0.9,0-1.3,0c-0.4,0-0.9,0-1.3,0
			c-13.6,0.3-27.1,5.6-37.5,15.9S2.6,49.1,2.3,62.7c0,0.4,0,0.9,0,1.3s0,0.9,0,1.3C2.7,78.7,8,92.1,18.2,102.3l8,8
			c0.8-2.9,1.8-5.7,3.1-8.4L24,96.6C5.8,78.5,5.8,49,24,30.9s47.6-18.1,65.7,0l6.2,6.2l1.1,1.1l5.7,5.7l0.3,0.3l3.6,3.6l54.6,54.6
			c0.6,0.6,1.3,1.3,1.9,2l5.7-5.7C168.1,97.9,167.5,97.3,166.8,96.6z M40.7,113.4l-6.4-6.4l-1.3-1.3c-1.2,2.8-2.1,5.7-2.8,8.7
			l1.4,1.4l7.1,7.1l0.2,0.2c0.3-3.2,0.9-6.5,1.8-9.6L40.7,113.4z M179.4,116.2l-3.7,3.7l-2.7,2.7c4.4,15.7,0.4,33.2-11.9,45.4
			c-12.9,12.9-31.6,16.6-47.8,11.1c-1.9-0.7-3.8-1.5-5.7-2.4c-0.1-0.1-0.2-0.1-0.4-0.2c-1.8-0.9-3.6-2-5.3-3.1v0
			c-0.9-0.6-1.9-1.3-2.8-2.1c-0.6-0.5-1.3-1.1-1.9-1.6c-0.6-0.6-1.2-1.1-1.8-1.7l-2.3-2.3L45,117.6c-0.7,3-1.1,6.1-1.1,9.2
			c0,0.4,0,0.8,0,1.2l45.3,45.3l0.4,0.4c0.8,0.8,1.6,1.6,2.5,2.4c0,0,0,0,0,0c1.6,1.5,3.4,2.8,5.1,4c0,0,0.1,0,0.1,0.1
			c1.9,1.3,3.8,2.4,5.8,3.4c7.8,4,16.4,6.1,25,6.1c14,0,27.9-5.3,38.6-16C182.4,158.2,186.5,135.6,179.4,116.2z M173.4,104.6
			c-0.5-0.7-1-1.4-1.5-2.1l-3.2,3.2l-2.5,2.5c0.5,0.7,1,1.4,1.5,2.2c1.4,2.2,2.6,4.6,3.6,6.9l6.1-6.1
			C176.1,108.9,174.8,106.7,173.4,104.6z"/>
	</g>
</g>
<g>
	<path class="st5" d="M218.7,106.6c0-3.5-0.1-6.2-0.3-9.2h3.5l0.3,6.8h0.2c2.5-4.4,6.1-7.7,12.5-7.7c5.3,0,9.4,3.6,11,8.4h0.2
		c1.1-2.3,2.5-4,3.9-5.2c2.5-2.1,5.1-3.2,9.2-3.2c3.7,0,12.5,2.1,12.5,16.7v22.6h-3.8v-22.3c0-8.6-3.3-13.8-10-13.8
		c-4.8,0-8.6,3.6-10.1,7.6c-0.4,1.1-0.7,2.4-0.7,3.8v24.6h-3.8v-24c0-6.9-3.3-12-9.5-12c-5.2,0-9.2,4.2-10.7,8.7
		c-0.3,1.1-0.6,2.4-0.6,3.7v23.7h-3.8V106.6z"/>
	<path class="st5" d="M284.8,116.3c0,12.3,6.7,17.1,14.6,17.1c5.6,0,8.5-1.1,10.7-2.2l1,3c-1.5,0.8-5.4,2.5-12.1,2.5
		c-11,0-17.9-8-17.9-19.3c0-12.8,7.3-20.8,17.3-20.8c12.6,0,15,11.8,15,17.4c0,1.1,0,1.7-0.1,2.4H284.8z M309.3,113.3
		c0.1-5.4-2.1-13.5-11.5-13.5c-8.4,0-12.1,7.6-12.8,13.5H309.3z"/>
	<path class="st5" d="M353.7,79.1v47.9c0,2.8,0.1,6.2,0.3,8.9h-3.4l-0.3-7.3h-0.2c-2,4.3-6.6,8.2-13.7,8.2
		c-9.5,0-16.5-7.9-16.5-19.4c-0.1-12.8,7.8-20.8,17.3-20.8c6.6,0,10.8,3.4,12.5,6.8h0.2V79.1H353.7z M349.9,112.7
		c0-1.1-0.1-2.4-0.4-3.5c-1.3-5.2-5.8-9.4-12.1-9.4c-8.3,0-13.6,7.3-13.6,17.2c0,8.6,4.3,16.6,13.5,16.6c5.5,0,10.6-3.7,12.3-10.1
		c0.3-1,0.4-2,0.4-3.2V112.7z"/>
	<path class="st5" d="M367.2,116.3c0,12.3,6.7,17.1,14.6,17.1c5.6,0,8.5-1.1,10.7-2.2l1,3c-1.5,0.8-5.4,2.5-12.1,2.5
		c-11,0-17.9-8-17.9-19.3c0-12.8,7.3-20.8,17.3-20.8c12.6,0,15,11.8,15,17.4c0,1.1,0,1.7-0.1,2.4H367.2z M391.6,113.3
		c0.1-5.4-2.1-13.5-11.5-13.5c-8.4,0-12.1,7.6-12.8,13.5H391.6z"/>
	<path class="st5" d="M405.4,109.7c0-4.8-0.1-8.6-0.3-12.3h3.6l0.3,7.3h0.2c2.8-5.1,7.5-8.2,14.2-8.2c9.9,0,16.5,8.2,16.5,19.4
		c0,13.7-8.2,20.7-17.5,20.7c-5.5,0-10.4-2.5-13-7.1h-0.2v22.1h-3.8V109.7z M409.2,120.7c0,1,0.1,2.1,0.3,3.1
		c1.6,5.9,6.7,9.8,12.6,9.8c8.8,0,13.8-7.2,13.8-17.4c0-8.6-4.8-16.4-13.5-16.4c-5.6,0-11,3.9-12.7,10.2c-0.3,1-0.6,2.2-0.6,3.3
		V120.7z"/>
	<path class="st5" d="M470.5,135.9l-0.6-5.5h-0.2c-1.9,3-6.1,6.4-12.2,6.4c-7.7,0-11.3-5.4-11.3-10.6c0-8.9,7.8-14.2,23.4-14v-1
		c0-3.8-0.7-11.4-9.8-11.3c-3.4,0-6.9,0.9-9.6,2.9l-1.2-2.8c3.5-2.4,7.8-3.3,11.3-3.3c11.1,0,13.2,8.3,13.2,15.2v15
		c0,3,0.1,6.2,0.6,9.1H470.5z M469.6,115.3c-8.4-0.2-19.4,1-19.4,10.2c0,5.5,3.6,8,7.6,8c6.4,0,10-4,11.4-7.7
		c0.3-0.8,0.4-1.6,0.4-2.3V115.3z"/>
	<path class="st5" d="M485.8,109c0-3.8-0.1-7.8-0.3-11.5h3.5l0.2,7.8h0.2c1.7-4.9,5.6-8.7,10.9-8.7c0.5,0,1.1,0.1,1.6,0.2v3.6
		c-0.6-0.1-1.1-0.1-1.8-0.1c-5.3,0-9,4.6-10.1,10.7c-0.2,1.1-0.3,2.4-0.3,3.6v21.2h-3.8V109z"/>
	<path class="st5" d="M514.7,86.3v11.1h10.9v3.1h-10.9v25c0,4.9,1.5,7.9,5.6,7.9c2,0,3.4-0.3,4.4-0.6l0.5,2.9
		c-1.2,0.5-3,0.9-5.3,0.9c-2.8,0-5.1-0.9-6.6-2.7c-1.7-2-2.3-5.2-2.3-9.2v-24.3h-6.5v-3.1h6.5v-9.9L514.7,86.3z"/>
	<path class="st5" d="M567,116.3c0,14.3-9.8,20.4-18.4,20.4c-9.9,0-17.6-7.7-17.6-19.8c0-13.1,8.6-20.4,18.2-20.4
		C559.8,96.6,567,104.5,567,116.3z M534.8,116.8c0,9.6,6.1,16.8,14,16.8c8,0,14.3-7.3,14.3-17.1c0-7-4-16.7-14.1-16.7
		C539.3,99.7,534.8,108.5,534.8,116.8z"/>
	<path class="st5" d="M606.3,126.5c0,3.4,0.1,6.4,0.3,9.4h-3.5l-0.3-6.8h-0.2c-1.9,3.5-6.3,7.7-13.2,7.7c-4.9,0-13.1-2.4-13.1-16.9
		V97.5h3.8V119c0,8.4,2.6,14.4,10.2,14.4c5.6,0,9.7-3.9,11.3-7.8c0.4-1.2,0.8-2.7,0.8-4.2V97.5h3.8V126.5z"/>
	<path class="st5" d="M624.5,86.3v11.1h10.9v3.1h-10.9v25c0,4.9,1.5,7.9,5.6,7.9c2,0,3.4-0.3,4.4-0.6l0.5,2.9
		c-1.2,0.5-3,0.9-5.3,0.9c-2.8,0-5.1-0.9-6.6-2.7c-1.7-2-2.3-5.2-2.3-9.2v-24.3h-6.5v-3.1h6.5v-9.9L624.5,86.3z"/>
</g>
<g class="st0">
	<path class="st1" d="M264.5,111c-0.4-7.5-0.9-16.6-0.9-23.3h-0.2c-1.9,6.3-4.1,13.1-6.8,20.4l-9.5,26.2h-5.3l-8.8-25.7
		c-2.6-7.6-4.7-14.5-6.2-20.9h-0.2c-0.2,6.7-0.5,15.7-1.1,23.8l-1.4,23.1h-6.6l3.8-53.9h8.9l9.2,26.1c2.2,6.6,4,12.5,5.4,18.2h0.2
		c1.4-5.5,3.3-11.4,5.7-18.2l9.6-26.1h8.9l3.3,53.9h-6.8L264.5,111z"/>
	<path class="st1" d="M283.4,81.5c4.3-0.7,9.3-1.2,14.8-1.2c10,0,17.1,2.4,21.8,6.8c4.8,4.4,7.6,10.6,7.6,19.3c0,8.8-2.8,16-7.8,21
		c-5.1,5-13.4,7.8-23.9,7.8c-5,0-9.1-0.2-12.7-0.6V81.5z M290.3,129.2c1.8,0.3,4.3,0.3,7,0.3c14.9,0,23-8.3,23-22.9
		c0.1-12.7-7.1-20.8-21.8-20.8c-3.6,0-6.3,0.3-8.2,0.7V129.2z"/>
	<path class="st1" d="M336.7,81.4c3.4-0.6,7.8-1.1,13.4-1.1c6.8,0,11.9,1.6,15.1,4.5c2.9,2.6,4.7,6.5,4.7,11.3
		c0,4.9-1.5,8.7-4.2,11.5c-3.7,3.9-9.7,5.9-16.5,5.9c-2.1,0-4-0.1-5.6-0.5v21.6h-7V81.4z M343.6,107.4c1.5,0.4,3.5,0.6,5.8,0.6
		c8.4,0,13.5-4.1,13.5-11.5c0-7.1-5.1-10.6-12.7-10.6c-3.1,0-5.4,0.3-6.6,0.5V107.4z"/>
	<path class="st1" d="M389.6,86.6h-16.4v-5.9h39.9v5.9h-16.5v48h-7V86.6z"/>
</g>
</svg>
